<svg width="50" height="50" viewBox="0 0 50 50" fill="none" xmlns="http://www.w3.org/2000/svg">
<path d="M19.0554 38.657C18.4404 38.9987 17.7399 39.1695 16.954 39.1695C16.1851 39.1695 15.4932 38.9987 14.8781 38.657C14.2802 38.3153 13.8018 37.8199 13.443 37.1707C13.0842 36.5215 12.9049 35.7613 12.9049 34.89C12.9049 34.0016 13.0842 33.2414 13.443 32.6093C13.8018 31.9601 14.2802 31.4647 14.8781 31.123C15.4932 30.7813 16.1937 30.6105 16.9796 30.6105C17.7484 30.6105 18.4404 30.7813 19.0554 31.123C19.6705 31.4647 20.1488 31.9601 20.4905 32.6093C20.8493 33.2414 21.0287 34.0016 21.0287 34.89C21.0287 35.7613 20.8493 36.5215 20.4905 37.1707C20.1488 37.8199 19.6705 38.3153 19.0554 38.657Z" fill="#FEFAE0"/>
<path fill-rule="evenodd" clip-rule="evenodd" d="M13.8889 0H36.1111C43.7817 0 50 6.21827 50 13.8889V36.1111C50 43.7817 43.7817 50 36.1111 50H13.8889C6.21827 50 0 43.7817 0 36.1111V13.8889C0 6.21827 6.21827 0 13.8889 0ZM19.4917 26.5061C18.0907 26.5061 16.8008 26.284 15.6219 25.8398C14.4601 25.3786 13.4436 24.7379 12.5722 23.9179C11.7009 23.0808 11.0261 22.0985 10.5477 20.9709C10.0693 19.8434 9.83008 18.6134 9.83008 17.2808C9.83008 15.9483 10.0693 14.7182 10.5477 13.5907C11.0261 12.4632 11.7009 11.4894 12.5722 10.6694C13.4606 9.83226 14.4943 9.19161 15.6731 8.74744C16.852 8.28619 18.1419 8.05554 19.5429 8.05554C21.0635 8.05554 22.4303 8.30327 23.6433 8.79869C24.8734 9.29411 25.907 10.0202 26.7442 10.9769L24.6428 13.0269C23.9423 12.3265 23.182 11.814 22.3619 11.4894C21.5589 11.1477 20.6705 10.9769 19.6967 10.9769C18.757 10.9769 17.8856 11.1306 17.0827 11.4381C16.2797 11.7456 15.5877 12.1813 15.0068 12.7451C14.426 13.3088 13.9732 13.9751 13.6486 14.7439C13.3411 15.5126 13.1873 16.3583 13.1873 17.2808C13.1873 18.1863 13.3411 19.0234 13.6486 19.7922C13.9732 20.5609 14.426 21.2357 15.0068 21.8166C15.5877 22.3804 16.2711 22.816 17.057 23.1235C17.8429 23.431 18.7142 23.5848 19.671 23.5848C20.5594 23.5848 21.4137 23.4481 22.2338 23.1748C22.6187 23.0412 22.9945 22.868 23.3614 22.655V17.0758H26.5136V24.2254C25.5739 24.9771 24.4804 25.5494 23.2332 25.9423C22.0031 26.3182 20.7559 26.5061 19.4917 26.5061ZM33.1621 26.2498V8.05554H36.3655V26.2498H33.1621ZM13.2124 41.0145C14.3058 41.6125 15.553 41.9114 16.954 41.9114C18.372 41.9114 19.6278 41.6125 20.7212 41.0145C21.8317 40.3995 22.6945 39.5624 23.3096 38.5032C23.9417 37.444 24.2578 36.2396 24.2578 34.89C24.2578 33.5062 23.9417 32.2932 23.3096 31.2512C22.6945 30.209 21.8317 29.389 20.7212 28.7911C19.6278 28.1931 18.372 27.8942 16.954 27.8942C15.553 27.8942 14.3058 28.1931 13.2124 28.7911C12.1189 29.389 11.2562 30.2176 10.624 31.2768C9.99185 32.3189 9.67578 33.5233 9.67578 34.89C9.67578 36.2396 9.99185 37.444 10.624 38.5032C11.2562 39.5624 12.1189 40.3995 13.2124 41.0145ZM28.5557 41.7321V39.7077L36.0762 30.6106H28.7095V28.048H40.1393V30.0724L32.6188 39.1695H40.3699V41.7321H28.5557Z" fill="#FEFAE0"/>
</svg>
